<svg xmlns="http://www.w3.org/2000/svg" xmlns:xlink="http://www.w3.org/1999/xlink" version="1.1" style="" xml:space="preserve" width="458.667" height="458.667"><rect id="backgroundrect" width="100%" height="100%" x="0" y="0" fill="none" stroke="none"/>
















<g class="currentLayer" style=""><title>Layer 1</title><g id="svg_1" class="">
	<g id="svg_2">
		<g id="svg_3">
			<path d="M21.490669535757153,7.771587645052615 c2.009027999676253,0 3.6527548328370347,-1.572832122779785 3.6527548328370347,-3.4952098011794326 C25.143424368594186,2.354082083813263 23.49969753543339,0.781249961033478 21.490669535757153,0.781249961033478 s-3.6527548328370347,1.572832122779785 -3.6527548328370347,3.4952098011794326 S19.481727146853448,7.771587645052615 21.490669535757153,7.771587645052615 z" fill="#FFDA44" id="svg_4"/>
			<path d="M31.53572392336585,20.878522001550824 v-3.4952098011794326 c-3.378800360643573,0 -6.300952860449662,-1.7475639414198523 -7.944679693610444,-4.281625862569325 L21.855970702272618,10.305649566202087 C21.21671506356368,9.257094817682232 20.029636091240377,8.645410574932404 18.751124813822518,8.645410574932404 c-0.45656225006491896,0 -0.9132101109023988,0.08740686848989754 -1.369772360967318,0.2621386871299644 l-9.588406526771225,3.757348488309397 v8.213706169518789 H11.445700758921005 v-5.854457985349111 l3.1961069719995554,-1.2232865671599233 l-2.830891416256644,14.068082236528168 L2.8617654266016226,26.208702612640007 L2.131248704343239,29.61650554532954 c0,0 12.784513498770778,2.359248184169678 12.784513498770778,2.446655052659575 L16.650835730596803,24.37373180273026 l3.9267093050304984,3.4952098011794326 v10.485547485198568 h3.6527548328370347 V25.16014786412015 L20.4861983413053,21.577613112790548 l1.0958178887738548,-5.242773742599284 C23.956259785498315,19.130958060130972 27.517667924013338,20.878522001550824 31.53572392336585,20.878522001550824 z" fill="#FFDA44" id="svg_5"/>
		</g>
	</g>
</g><g id="svg_6">
</g><g id="svg_7">
</g><g id="svg_8">
</g><g id="svg_9">
</g><g id="svg_10">
</g><g id="svg_11">
</g><g id="svg_12">
</g><g id="svg_13">
</g><g id="svg_14">
</g><g id="svg_15">
</g><g id="svg_16">
</g><g id="svg_17">
</g><g id="svg_18">
</g><g id="svg_19">
</g><g id="svg_20">
</g></g></svg>