<svg xmlns="http://www.w3.org/2000/svg" xmlns:xlink="http://www.w3.org/1999/xlink" version="1.1" style="enable-background:new 0 0 426.667 426.667;" xml:space="preserve" width="426.6669921875" height="426.6669921875"><rect id="backgroundrect" width="100%" height="100%" x="0" y="0" fill="none" stroke="none"/>

















<g class="currentLayer" style=""><title>Layer 1</title><g class=""><g id="svg_1" class="">
	<g id="svg_2">
		<g id="svg_3">
			<path d="M18.79091539280164,9.354143310977662 l-6.999359533063032,5.0498818469644 c0.6676007758519874,0.18645807232095635 1.2060829380165872,0.4117372979806115 1.6583514206745191,0.6059887350431086 c0.7968203423256821,0.3496088856017931 1.2813937166020375,0.5593742169628688 2.4766747064837147,0.5593742169628688 c1.1952809898816767,0 1.6798543641580321,-0.20976533136107586 2.4766747064837147,-0.5515808522213287 c0.9691467485527109,-0.4195306627221522 2.304449253042993,-1.0022121387251404 4.695011232806347,-1.0022121387251404 s3.7258644842536346,0.5748881112614485 4.695011232806347,1.0022121387251404 c0.7968203423256821,0.3496088856017931 1.2813937166020375,0.5515808522213287 2.4766747064837147,0.5515808522213287 c1.1952809898816767,0 1.6798543641580321,-0.20976533136107586 2.4766747064837147,-0.5515808522213287 c0.25843913294739024,-0.11653629520059801 0.5491831575132029,-0.23307259040119593 0.8722320736974398,-0.35740225034333334 L19.8246719245912,4.692691502953753 C16.475664191623736,2.27645709233836 13.406699487873484,1.5695187915777356 8.022584535731639,1.5850326858763153 v3.884518894958423 c3.919693833964178,-0.015513894298579623 6.213341138872258,0.6059887350431086 8.614604113984216,2.330725904011954 L18.79091539280164,9.354143310977662 z" fill="#91DC5A" id="svg_4"/>
			<path d="M42.13655008478707,18.902326152685138 c-0.9691467485527109,-0.4273240274636926 -2.304449253042993,-1.0022121387251404 -4.695011232806347,-1.0022121387251404 s-3.7258644842536346,0.5826814760029888 -4.695011232806347,1.0022121387251404 c-0.7968203423256821,0.34181552086025313 -1.2813937166020375,0.5515808522213287 -2.4766747064837147,0.5515808522213287 c-1.1952809898816767,0 -1.6798543641580321,-0.20197196661953642 -2.4766747064837147,-0.5515808522213287 c-0.9691467485527109,-0.4273240274636926 -2.304449253042993,-1.0022121387251404 -4.695011232806347,-1.0022121387251404 s-3.7258644842536346,0.5826814760029888 -4.695011232806347,1.0022121387251404 c-0.7968203423256821,0.34181552086025313 -1.2813937166020375,0.5515808522213287 -2.4766747064837147,0.5515808522213287 c-1.2060829380165872,0 -1.6906563122929426,-0.20976533136107586 -2.487476654618625,-0.5593742169628688 c-0.9691467485527109,-0.4195306627221522 -2.304449253042993,-0.9944187739836003 -4.695011232806347,-0.9944187739836003 s-3.7258644842536346,0.5748881112614485 -4.695011232806347,0.9944187739836003 c-0.8076222904605925,0.3496088856017931 -1.292195664736948,0.5593742169628688 -2.487476654618625,0.5593742169628688 v3.107658817077439 c2.3905619797633535,0 3.7258644842536346,-0.5748881112614485 4.695011232806347,-0.9944187739836003 c0.8076222904605925,-0.3496088856017931 1.2813937166020375,-0.5593742169628688 2.487476654618625,-0.5593742169628688 s1.6906563122929426,0.20976533136107586 2.487476654618625,0.5593742169628688 c0.9691467485527109,0.4195306627221522 2.304449253042993,0.9944187739836003 4.695011232806347,0.9944187739836003 s3.7258644842536346,-0.5748881112614485 4.716514176289861,-1.0022121387251404 c0.7968203423256821,-0.34181552086025313 1.2813937166020375,-0.5515808522213287 2.4766747064837147,-0.5515808522213287 c1.1952809898816767,0 1.6798543641580321,0.20197196661953642 2.4766747064837147,0.5515808522213287 c0.9691467485527109,0.4273240274636926 2.304449253042993,1.0022121387251404 4.695011232806347,1.0022121387251404 c2.3905619797633535,0 3.7258644842536346,-0.5826814760029888 4.695011232806347,-1.0022121387251404 c0.7968203423256821,-0.34181552086025313 1.2813937166020375,-0.5515808522213287 2.4766747064837147,-0.5515808522213287 c1.1952809898816767,0 1.6798543641580321,0.20976533136107586 2.4766747064837147,0.5515808522213287 c0.9691467485527109,0.4273240274636926 2.304449253042993,1.0022121387251404 4.695011232806347,1.0022121387251404 v-3.107658817077439 C43.439547697658924,19.453907004906462 42.95497432338256,19.244141673545386 42.13655008478707,18.902326152685138 z" fill="#91DC5A" id="svg_5"/>
			<path d="M37.44153885198072,24.89229172599585 c-2.3905619797633535,0 -3.7258644842536346,0.5826814760029888 -4.695011232806347,1.0022121387251404 c-0.7968203423256821,0.34181552086025313 -1.2813937166020375,0.5515808522213287 -2.4766747064837147,0.5515808522213287 c-1.1952809898816767,0 -1.6798543641580321,-0.20197196661953642 -2.4766747064837147,-0.5515808522213287 c-0.9691467485527109,-0.4273240274636926 -2.304449253042993,-1.0022121387251404 -4.695011232806347,-1.0022121387251404 s-3.7258644842536346,0.5826814760029888 -4.695011232806347,1.0022121387251404 c-0.7968203423256821,0.34181552086025313 -1.2813937166020375,0.5515808522213287 -2.4766747064837147,0.5515808522213287 c-1.2060829380165872,0 -1.6906563122929426,-0.20976533136107586 -2.487476654618625,-0.5593742169628688 c-0.9691467485527109,-0.4195306627221522 -2.304449253042993,-0.9944187739836003 -4.695011232806347,-0.9944187739836003 s-3.7258644842536346,0.5748881112614485 -4.695011232806347,0.9944187739836003 c-0.8076222904605925,0.3496088856017931 -1.292195664736948,0.5593742169628688 -2.487476654618625,0.5593742169628688 v3.107658817077439 c2.3905619797633535,0 3.7258644842536346,-0.5748881112614485 4.695011232806347,-0.9944187739836003 c0.8076222904605925,-0.3496088856017931 1.2813937166020375,-0.5593742169628688 2.487476654618625,-0.5593742169628688 s1.6906563122929426,0.20976533136107586 2.487476654618625,0.5593742169628688 c0.9691467485527109,0.4195306627221522 2.304449253042993,0.9944187739836003 4.695011232806347,0.9944187739836003 s3.7258644842536346,-0.5748881112614485 4.716514176289861,-1.0022121387251404 c0.7968203423256821,-0.34181552086025313 1.2813937166020375,-0.5515808522213287 2.4766747064837147,-0.5515808522213287 c1.1952809898816767,0 1.6798543641580321,0.20197196661953642 2.4766747064837147,0.5515808522213287 c0.9691467485527109,0.4273240274636926 2.304449253042993,1.0022121387251404 4.695011232806347,1.0022121387251404 c2.3905619797633535,0 3.7258644842536346,-0.5826814760029888 4.695011232806347,-1.0022121387251404 c0.7968203423256821,-0.34181552086025313 1.2813937166020375,-0.5515808522213287 2.4766747064837147,-0.5515808522213287 c1.1952809898816767,0 1.6798543641580321,0.20976533136107586 2.4766747064837147,0.5515808522213287 c0.9691467485527109,0.4273240274636926 2.304449253042993,1.0022121387251404 4.695011232806347,1.0022121387251404 v-3.107658817077439 c-1.1952809898816767,0 -1.6798543641580321,-0.20976533136107586 -2.498278602753535,-0.5515808522213287 C41.16740333623435,25.467179837257298 39.83210083174407,24.89229172599585 37.44153885198072,24.89229172599585 z M 30.19, 4.84 m -3.82, 0 a 3.82,3.82 0 1,0 7.64,0 a 3.82,3.82 0 1,0 -7.64,0" fill="#91DC5A" id="svg_6"/>
		</g>
	</g>
</g><g id="svg_7" class="">
	
</g><g id="svg_10" class="">
</g><g id="svg_11" class="">
</g><g id="svg_12" class="">
</g><g id="svg_13" class="">
</g><g id="svg_14" class="">
</g><g id="svg_15" class="">
</g><g id="svg_16" class="">
</g><g id="svg_17" class="">
</g><g id="svg_18" class="">
</g><g id="svg_19" class="">
</g><g id="svg_20" class="">
</g><g id="svg_21" class="">
</g><g id="svg_22" class="">
</g><g id="svg_23" class="">
</g><g id="svg_24" class="">
</g></g></g></svg>